<?xml version="1.0" encoding="utf-8"?>
<svg version="1.1" id="Layer_1" xmlns="http://www.w3.org/2000/svg" xmlns:xlink="http://www.w3.org/1999/xlink" x="0px" y="0px"
	 viewBox="0 0 25 25" style="enable-background:new 0 0 25 25;" xml:space="preserve">
	<path fill="#3B4859" d="M12.5,23.4c-6,0-10.9-4.9-10.9-10.9S6.5,1.6,12.5,1.6s10.9,4.9,10.9,10.9S18.5,23.4,12.5,23.4L12.5,23.4z
		 M12.5,0C5.6,0,0,5.6,0,12.5S5.6,25,12.5,25S25,19.4,25,12.5S19.4,0,12.5,0L12.5,0z M13.3,13.3h3.9c0.4,0,0.8-0.4,0.8-0.8
		s-0.4-0.8-0.8-0.8l0,0h-3.9l-1.6,0H7.8c-0.4,0-0.8,0.4-0.8,0.8s0.3,0.8,0.8,0.8h3.9H13.3z"/>
</svg>
