<?xml version="1.0" encoding="utf-8"?>
<!-- Generator: Adobe Illustrator 20.1.0, SVG Export Plug-In . SVG Version: 6.00 Build 0)  -->
<svg version="1.1" id="Layer_1" xmlns="http://www.w3.org/2000/svg" xmlns:xlink="http://www.w3.org/1999/xlink" x="0px" y="0px"
	 viewBox="0 0 51 52" style="enable-background:new 0 0 51 52;" xml:space="preserve">
<style type="text/css">
	.st0{fill:#20C4F4;}
</style>
<path class="st0" d="M35.1,14.5c-0.8-0.4-1.7-0.2-2.2,0.6L22.7,32.7L17,27.4c-0.6-0.6-1.6-0.7-2.3-0.1c-0.6,0.6-0.7,1.6-0.1,2.2
	l7.3,6.7c0.6,0.6,1.6,0.7,2.3,0.1c0.2-0.2,11.4-19.8,11.4-19.8C36.1,15.9,35.9,14.9,35.1,14.5L35.1,14.5z M25.5,47.8
	c-12.3,0-22.3-10-22.3-22.3s10-22.3,22.3-22.3s22.3,10,22.3,22.3S37.8,47.8,25.5,47.8L25.5,47.8z M25.5,0C11.4,0,0,11.4,0,25.5
	S11.4,51,25.5,51S51,39.6,51,25.5S39.6,0,25.5,0L25.5,0z"/>
</svg>
