<?xml version="1.0" encoding="utf-8"?>
<!-- Generator: Adobe Illustrator 21.0.0, SVG Export Plug-In . SVG Version: 6.00 Build 0)  -->
<svg version="1.1" id="Layer_1" xmlns="http://www.w3.org/2000/svg" xmlns:xlink="http://www.w3.org/1999/xlink" x="0px" y="0px"
	 viewBox="0 0 12 12" style="enable-background:new 0 0 12 12;" xml:space="preserve">
<style type="text/css">
	.st0{fill:#989898;}
</style>

<g id="home">
	<g id="home--search" transform="translate(-1283.000000, -143.000000)">
		<path id="Path-Copy" class="st0" d="M1294.7,143.3c-0.4-0.4-1-0.4-1.4,0l-4.3,4.3l-4.2-4.2c-0.4-0.4-1-0.4-1.4,0
			c-0.4,0.4-0.4,1,0,1.4l4.2,4.2l-4.3,4.3c-0.4,0.4-0.4,1,0,1.4c0.4,0.4,1,0.4,1.4,0l4.3-4.3l4.2,4.2c0.4,0.4,1,0.4,1.4,0
			c0.4-0.4,0.4-1,0-1.4l-4.2-4.2l4.3-4.3C1295.1,144.3,1295.1,143.7,1294.7,143.3L1294.7,143.3z"/>
	</g>
</g>
</svg>
