<svg xmlns="http://www.w3.org/2000/svg" width="35" height="34" viewBox="0 0 35 34">
  <path fill="#F9FAFC" fill-rule="evenodd" d="M18.6254029,34.2240573 L2.53301629,34.2240573 C1.50852508,34.2240573 0.678554223,33.3935714 0.678554223,32.3694793 L0.678554223,2.47850499 C0.678554223,1.45415211 1.50865546,0.624057315 2.53301629,0.624057315 L32.4242225,0.624057315 C33.4483226,0.624057315 34.2785542,1.45415211 34.2785542,2.47850499 L34.2785542,32.3694793 C34.2785542,33.3937018 33.4481922,34.2240573 32.4242225,34.2240573 L23.8620679,34.2240573 L23.8620679,21.2122856 L28.229519,21.2122856 L28.8834829,16.1413673 L23.8620679,16.1413673 L23.8620679,12.9039063 C23.8620679,11.4357584 24.2697523,10.4352641 26.375057,10.4352641 L29.0602722,10.4340907 L29.0602722,5.8986207 C28.5958744,5.83682316 27.0019027,5.6987565 25.1474406,5.6987565 C21.2759382,5.6987565 18.6254029,8.06192569 18.6254029,12.4017035 L18.6254029,16.1413673 L14.2467395,16.1413673 L14.2467395,21.2122856 L18.6254029,21.2122856 L18.6254029,34.2240573 L18.6254029,34.2240573 Z" transform="translate(.004 -.532)"/>
</svg>
