<?xml version="1.0" encoding="utf-8"?>
<svg version="1.1" id="Layer_1" xmlns="http://www.w3.org/2000/svg" xmlns:xlink="http://www.w3.org/1999/xlink" x="0px" y="0px"
	 viewBox="0 0 21.8 19.8" style="enable-background:new 0 0 21.8 19.8;" xml:space="preserve">
<g id="Symbols">
	<g id="footer_x2F_desktop" transform="translate(-610.000000, -277.748740)">
		<path fill="#9B9B9B" id="LinkedIn-Copy" d="M631.8,297.5H627v-7c0-1.8-0.8-3.1-2.4-3.1c-1.3,0-2,0.8-2.3,1.6
			c-0.1,0.3-0.1,0.7-0.1,1.1v7.3h-4.8c0,0,0.1-12.3,0-13.5h4.8v2.1c0.3-0.9,1.8-2.2,4.2-2.2c3,0,5.4,1.9,5.4,6.1V297.5L631.8,297.5z
			 M612.6,282.4L612.6,282.4c-1.6,0-2.6-1-2.6-2.3c0-1.3,1-2.3,2.6-2.3c1.6,0,2.5,1,2.6,2.3C615.2,281.4,614.2,282.4,612.6,282.4
			L612.6,282.4L612.6,282.4z M610.5,284.1h4.2v13.5h-4.2V284.1L610.5,284.1z"/>
	</g>
</g>
</svg>
