<?xml version="1.0" encoding="utf-8"?>
<!-- Generator: Adobe Illustrator 20.1.0, SVG Export Plug-In . SVG Version: 6.00 Build 0)  -->
<svg version="1.1" id="Layer_1" xmlns="http://www.w3.org/2000/svg" xmlns:xlink="http://www.w3.org/1999/xlink" x="0px" y="0px"
	 viewBox="0 0 56 57" style="enable-background:new 0 0 56 57;" xml:space="preserve">
<style type="text/css">
	.st0{fill:#20C4F4;}
</style>
<path class="st0" d="M27.8,48.7c0,0-5.4-10.5-6.9-13.9L48.7,8.4L27.8,48.7L27.8,48.7z M6.9,26.2L46.9,7.1l-27.8,26
	C19.1,33.1,6.9,26.2,6.9,26.2L6.9,26.2z M53.8,0.1c-2,1-53.8,26-53.8,26s17.5,10.5,17.4,10.4c0,0,10.4,19.1,10.4,19.1
	S55.1,2.7,55.6,1.9C55.9,0.8,55.1-0.4,53.8,0.1L53.8,0.1z"/>
</svg>
