<svg xmlns="http://www.w3.org/2000/svg" width="18" height="18" viewBox="0 0 18 18">
  <path fill="#971D20" fill-rule="evenodd" d="M15.4999991,13.9999992 L14.7099991,13.9999992 L14.4299994,13.7299987 C15.4099989,12.5899993 15.999999,11.1099989 15.999999,9.49999943 C15.999999,5.90999949 13.0899993,2.99999982 9.49999943,2.99999982 C5.90999949,2.99999982 2.99999982,5.90999949 2.99999982,9.49999943 C2.99999982,13.0899993 5.90999949,15.999999 9.49999943,15.999999 C11.1099989,15.999999 12.5899993,15.4099989 13.7299987,14.4299994 L13.9999992,14.7099991 L13.9999992,15.4999991 L18.9999989,20.4899985 L20.4899985,18.9999989 L15.4999991,13.9999992 Z M9.49999943,13.9999992 C7.0099998,13.9999992 4.9999997,11.989999 4.9999997,9.49999943 C4.9999997,7.0099998 7.0099998,4.9999997 9.49999943,4.9999997 C11.989999,4.9999997 13.9999992,7.0099998 13.9999992,9.49999943 C13.9999992,11.989999 11.989999,13.9999992 9.49999943,13.9999992 Z" transform="translate(-3 -3)"/>
</svg>
