<?xml version="1.0" encoding="utf-8"?>
<svg version="1.1" id="Layer_1" xmlns="http://www.w3.org/2000/svg" xmlns:xlink="http://www.w3.org/1999/xlink" x="0px" y="0px"
	 viewBox="0 0 23.8 22.3" style="enable-background:new 0 0 23.8 22.3;" xml:space="preserve">
<g id="Symbols">
	<g id="footer_x2F_desktop" transform="translate(-572.000000, -276.748740)">
		<path id="Snapchat" fill="#9B9B9B" d="M584.1,276.7L584.1,276.7C584.1,276.7,584.1,276.7,584.1,276.7c-0.2,0-0.4,0-0.5,0
			c-0.5,0-1.6,0.1-2.7,0.6c-0.6,0.3-1.2,0.7-1.7,1.1c-0.6,0.6-1.1,1.3-1.4,2.1c-0.5,1.2-0.4,3.2-0.3,4.8l0,0c0,0.2,0,0.4,0,0.5
			c-0.1,0-0.2,0.1-0.4,0.1c-0.3,0-0.7-0.1-1.1-0.3c-0.1-0.1-0.3-0.1-0.4-0.1c-0.2,0-0.5,0.1-0.7,0.2c-0.3,0.2-0.5,0.4-0.5,0.6
			c0,0.2,0,0.5,0.3,0.8c0.2,0.2,0.5,0.4,0.9,0.5c0.1,0,0.2,0.1,0.3,0.1c0.4,0.1,1.1,0.4,1.3,0.8c0.1,0.2,0.1,0.5-0.1,0.8
			c0,0,0,0,0,0c0,0.1-0.4,0.9-1.2,1.9c-0.4,0.5-0.9,0.9-1.4,1.3c-0.6,0.4-1.3,0.7-2,0.8c-0.3,0-0.5,0.3-0.5,0.6c0,0.1,0,0.2,0.1,0.2
			c0,0,0,0,0,0c0.1,0.3,0.4,0.5,0.8,0.7c0.5,0.2,1.3,0.4,2.3,0.6c0.1,0.1,0.1,0.3,0.1,0.5c0,0.2,0.1,0.4,0.1,0.6
			c0.1,0.2,0.2,0.5,0.6,0.5c0.2,0,0.3,0,0.5-0.1c0.3-0.1,0.7-0.1,1.2-0.1c0.3,0,0.6,0,0.9,0.1c0.6,0.1,1.1,0.5,1.7,0.9
			c0.8,0.6,1.8,1.3,3.3,1.3c0,0,0.1,0,0.1,0c0,0,0.1,0,0.2,0c1.5,0,2.4-0.7,3.3-1.3l0,0c0.6-0.4,1.1-0.8,1.7-0.9
			c0.3,0,0.6-0.1,0.9-0.1c0.5,0,0.9,0.1,1.2,0.1c0.2,0,0.4,0.1,0.5,0.1l0,0h0c0.3,0,0.5-0.2,0.6-0.5c0.1-0.2,0.1-0.4,0.1-0.6
			c0-0.2,0.1-0.4,0.1-0.5c1-0.2,1.8-0.4,2.3-0.6c0.4-0.2,0.7-0.4,0.8-0.7c0-0.1,0.1-0.2,0.1-0.2c0-0.3-0.2-0.5-0.5-0.6
			c-3.2-0.5-4.6-3.8-4.7-3.9c0,0,0,0,0,0c-0.2-0.3-0.2-0.6-0.1-0.8c0.2-0.4,0.8-0.6,1.3-0.8c0.1,0,0.2-0.1,0.3-0.1
			c0.4-0.2,0.7-0.4,0.9-0.6c0.2-0.3,0.3-0.5,0.3-0.6c0-0.4-0.3-0.7-0.8-0.9c-0.2-0.1-0.3-0.1-0.5-0.1c-0.1,0-0.3,0-0.5,0.1
			c-0.4,0.2-0.7,0.3-1,0.3c-0.2,0-0.3,0-0.3-0.1c0-0.1,0-0.3,0-0.5l0-0.1c0.1-1.6,0.2-3.6-0.3-4.8c-0.4-0.8-0.9-1.5-1.5-2.1
			c-0.5-0.5-1.1-0.9-1.7-1.1C585.7,276.8,584.6,276.7,584.1,276.7"/>
	</g>
</g>
</svg>
