<?xml version="1.0" encoding="utf-8"?>
<svg version="1.1" id="Layer_1" xmlns="http://www.w3.org/2000/svg" xmlns:xlink="http://www.w3.org/1999/xlink" x="0px" y="0px"
	 viewBox="0 0 23.8 19.8" style="enable-background:new 0 0 23.8 19.8;" xml:space="preserve">
<g id="Symbols">
	<g id="footer_x2F_desktop" transform="translate(-495.000000, -277.748740)">
		<path id="Twitter" fill="#9B9B9B" d="M518.8,280.1c-0.9,0.4-1.8,0.7-2.8,0.8c1-0.6,1.8-1.6,2.1-2.8c-0.9,0.6-2,1-3.1,1.2
			c-0.9-1-2.2-1.6-3.6-1.6c-2.7,0-4.9,2.2-4.9,5c0,0.4,0,0.8,0.1,1.1c-4.1-0.2-7.6-2.2-10-5.2c-0.4,0.7-0.7,1.6-0.7,2.5
			c0,1.7,0.9,3.3,2.2,4.2c-0.8,0-1.6-0.3-2.2-0.6v0.1c0,2.4,1.7,4.4,3.9,4.9c-0.4,0.1-0.8,0.2-1.3,0.2c-0.3,0-0.6,0-0.9-0.1
			c0.6,2,2.4,3.4,4.6,3.5c-1.7,1.3-3.8,2.1-6.1,2.1c-0.4,0-0.8,0-1.2-0.1c2.2,1.4,4.7,2.2,7.5,2.2c9,0,13.9-7.6,13.9-14.2
			c0-0.2,0-0.4,0-0.6C517.3,282,518.1,281.1,518.8,280.1"/>
	</g>
</g>
</svg>
