<svg xmlns="http://www.w3.org/2000/svg" width="47" height="34" viewBox="0 0 35 25">
  <path fill="#F9FAFC" fill-rule="evenodd" d="M84.0093542,22.5129985 L84.0083042,13.0054764 L93.0866042,17.7756279 L84.0093542,22.5129985 Z M103.942554,11.3579712 C103.942554,11.3579712 103.613904,9.02629662 102.606954,7.99951384 C101.329104,6.65126663 99.8969042,6.64492193 99.2406542,6.56667072 C94.5387542,6.22405731 87.4859042,6.22405731 87.4859042,6.22405731 L87.4712042,6.22405731 C87.4712042,6.22405731 80.4183542,6.22405731 75.7164542,6.56667072 C75.0591542,6.64492193 73.6280042,6.65126663 72.3491042,7.99951384 C71.3421542,9.02629662 71.0145542,11.3579712 71.0145542,11.3579712 C71.0145542,11.3579712 70.6785542,14.0967636 70.6785542,16.8344985 L70.6785542,19.4019842 C70.6785542,22.1407766 71.0145542,24.8785115 71.0145542,24.8785115 C71.0145542,24.8785115 71.3421542,27.2101861 72.3491042,28.2369689 C73.6280042,29.5852161 75.3069542,29.5429181 76.0545542,29.6835588 C78.7425542,29.9436912 87.4785542,30.0240573 87.4785542,30.0240573 C87.4785542,30.0240573 94.5387542,30.0134828 99.2406542,29.6708694 C99.8969042,29.5915608 101.329104,29.5852161 102.606954,28.2369689 C103.613904,27.2101861 103.942554,24.8785115 103.942554,24.8785115 C103.942554,24.8785115 104.278554,22.1407766 104.278554,19.4019842 L104.278554,16.8344985 C104.278554,14.0967636 103.942554,11.3579712 103.942554,11.3579712 L103.942554,11.3579712 Z" transform="translate(-69.996 -5.532)"/>
</svg>
